<svg xmlns="http://www.w3.org/2000/svg" viewBox="0 0 968.8 174.0">
  <rect width="968.8" height="174.0" fill="#06363B"></rect>
  <g transform="translate(16,12.1) scale(1.5576)">
    
    <line x1="20" y1="26" x2="64" y2="50" stroke="#7FBFC3" stroke-width="6" stroke-linecap="round"></line>
    <line x1="14" y1="50" x2="64" y2="50" stroke="#FFFFFF" stroke-width="7" stroke-linecap="round"></line>
    <line x1="20" y1="74" x2="64" y2="50" stroke="#7FBFC3" stroke-width="6" stroke-linecap="round"></line>
    <circle cx="64" cy="50" r="8" fill="#E6A23C"></circle>
    <line x1="75" y1="50" x2="88" y2="50" stroke="#E6A23C" stroke-width="6" stroke-linecap="round"></line>
  
  </g>
  <g transform="translate(199.8,156.0)">
    
    <path d="M71.8 0L10.6 0L10.6 -3.2L27.2 -11.4L27.2 -120.6L10.6 -128.8L10.6 -132L113 -132L113 -97.4L109.8 -97.4L96.6 -121L52.2 -121L52.2 -73.2L82.4 -73.2L93.2 -90.2L96.4 -90.2L96.4 -46.4L93.2 -46.4L82.4 -63L52.2 -63L52.2 -11.4L71.8 -3.2L71.8 0M179.2 2L179.2 2Q165.4 2 155 -4.3Q144.6 -10.6 138.8 -21.4Q133 -32.2 133 -45.4L133 -45.4Q133 -58.6 138.8 -69.3Q144.6 -80 155 -86.4Q165.4 -92.8 179.2 -92.8L179.2 -92.8Q193 -92.8 203.4 -86.4Q213.8 -80 219.6 -69.3Q225.4 -58.6 225.4 -45.4L225.4 -45.4Q225.4 -32.2 219.6 -21.4Q213.8 -10.6 203.4 -4.3Q193 2 179.2 2M181.6 -7.4L181.6 -7.4Q188.4 -7.4 192.7 -12.2Q197 -17 199 -24.8Q201 -32.6 201 -41.4L201 -41.4Q201 -52.2 198.6 -61.8Q196.2 -71.4 190.9 -77.5Q185.6 -83.6 177.2 -83.6L177.2 -83.6Q170.4 -83.6 166 -78.8Q161.6 -74 159.5 -66.2Q157.4 -58.4 157.4 -49.6L157.4 -49.6Q157.4 -38.8 159.9 -29.1Q162.4 -19.4 167.8 -13.4Q173.2 -7.4 181.6 -7.4M293.2 0L241.8 0L241.8 -3.2L254.8 -9.6L254.8 -69.2L242.4 -79L242.4 -81L274 -92.8L275.8 -92.8L277.8 -74.2L278.6 -74.2Q285.6 -84.2 291.6 -88.3Q297.6 -92.4 303.6 -92.4L303.6 -92.4Q308.6 -92.4 311.5 -90.1Q314.4 -87.8 314.4 -83.6L314.4 -83.6Q314.4 -82.4 313.6 -79.4L313.6 -79.4L311.2 -70L291.6 -74.4Q283.6 -71.6 277.8 -64.2L277.8 -64.2L277.8 -9.6L293.2 -3.2L293.2 0M368.2 2L368.2 2Q348 2 336.4 -9.8Q324.8 -21.6 324.8 -41.2L324.8 -41.2Q324.8 -56.4 331.1 -68Q337.4 -79.6 348 -86.2Q358.6 -92.8 371.4 -92.8L371.4 -92.8Q387.4 -92.8 396.4 -81.8Q405.4 -70.8 405.6 -50.8L405.6 -50.8L404.8 -49.8L347.2 -49.8Q347.2 -41 350.4 -33.5Q353.6 -26 360.7 -21.4Q367.8 -16.8 379.8 -16.8L379.8 -16.8Q385.4 -16.8 391.8 -18.5Q398.2 -20.2 405.2 -23.8L405.2 -23.8L405.8 -23.8L405.8 -21Q401 -11.2 391.2 -4.6Q381.4 2 368.2 2M367.4 -83.8L367.4 -83.8Q359.4 -83.8 354.3 -77.3Q349.2 -70.8 347.8 -58.8L347.8 -58.8L386.2 -58.8Q384.4 -72.6 379.7 -78.2Q375 -83.8 367.4 -83.8M464.8 0L458.6 0L421.2 -81.8L408.4 -87.6L408.4 -90.8L461.2 -90.8L461.2 -87.6L446.4 -81.6L446.4 -80.8L469.2 -31.6L470 -31.6L490.2 -79.8L490.2 -80.8L476.8 -87.6L476.8 -90.8L516 -90.8L516 -87.6L501.6 -80.6L464.8 0M554.2 2L554.2 2Q542.2 2 534.6 -4.1Q527 -10.2 527 -22.2L527 -22.2L527 -81.2L514 -87.6L514 -90.8L550.2 -90.8L550.2 -30.8Q550.2 -23 554.8 -19Q559.4 -15 566.8 -15L566.8 -15Q571.2 -15 576.3 -16.5Q581.4 -18 584.8 -21L584.8 -21L584.8 -81.2L571.8 -87.6L571.8 -90.8L608 -90.8L608 -9.2L621.2 -3.2L621.2 0L584.8 0L584.8 -12.6L584 -12.6Q576.6 -5.4 569.8 -1.7Q563 2 554.2 2M677.6 2L677.6 2Q657.4 2 645.8 -9.8Q634.2 -21.6 634.2 -41.2L634.2 -41.2Q634.2 -56.4 640.5 -68Q646.8 -79.6 657.4 -86.2Q668 -92.8 680.8 -92.8L680.8 -92.8Q696.8 -92.8 705.8 -81.8Q714.8 -70.8 715 -50.8L715 -50.8L714.2 -49.8L656.6 -49.8Q656.6 -41 659.8 -33.5Q663 -26 670.1 -21.4Q677.2 -16.8 689.2 -16.8L689.2 -16.8Q694.8 -16.8 701.2 -18.5Q707.6 -20.2 714.6 -23.8L714.6 -23.8L715.2 -23.8L715.2 -21Q710.4 -11.2 700.6 -4.6Q690.8 2 677.6 2M676.8 -83.8L676.8 -83.8Q668.8 -83.8 663.7 -77.3Q658.6 -70.8 657.2 -58.8L657.2 -58.8L695.6 -58.8Q693.8 -72.6 689.1 -78.2Q684.4 -83.8 676.8 -83.8" fill="#FFFFFF"></path>
    <path d="M26 1L26 1Q20.4 1 16.4 -3.1Q12.4 -7.2 12.4 -12.8L12.4 -12.8Q12.4 -18.4 16.4 -22.5Q20.4 -26.6 26 -26.6L26 -26.6Q31.6 -26.6 35.7 -22.5Q39.8 -18.4 39.8 -12.8L39.8 -12.8Q39.8 -7.2 35.7 -3.1Q31.6 1 26 1" fill="#E6A23C" transform="translate(723.8000000000001,0)"></path>
  
  </g>
</svg>